<?xml version="1.0" encoding="UTF-8"?>
<!DOCTYPE svg PUBLIC "-//W3C//DTD SVG 1.1//EN" "http://www.w3.org/Graphics/SVG/1.1/DTD/svg11.dtd">
<svg xmlns="http://www.w3.org/2000/svg" version="1.1" width="110px" height="110px" style="shape-rendering:geometricPrecision; text-rendering:geometricPrecision; image-rendering:optimizeQuality; fill-rule:evenodd; clip-rule:evenodd" xmlns:xlink="http://www.w3.org/1999/xlink">
<g><path style="opacity:1" fill="#fdfefe" d="M -0.5,-0.5 C 17.8333,-0.5 36.1667,-0.5 54.5,-0.5C 54.5,-0.166667 54.5,0.166667 54.5,0.5C 52.901,0.232191 51.5676,0.565525 50.5,1.5C 44.2181,2.97022 38.8847,5.97022 34.5,10.5C 30.8831,13.0639 28.2164,16.3972 26.5,20.5C 17.0366,25.3818 10.8699,33.0484 8,43.5C 7.50085,48.1548 7.33418,52.8215 7.5,57.5C 7.33669,59.8568 7.50335,62.1902 8,64.5C 8.90794,68.1932 10.4079,71.5266 12.5,74.5C 14.7094,79.3813 18.0427,83.3813 22.5,86.5C 24.0009,87.7515 25.6675,88.7515 27.5,89.5C 29.4975,94.0115 32.4975,97.8449 36.5,101C 42.2079,104.69 48.2079,107.523 54.5,109.5C 36.1667,109.5 17.8333,109.5 -0.5,109.5C -0.5,72.8333 -0.5,36.1667 -0.5,-0.5 Z"/></g>
<g><path style="opacity:1" fill="#fcfdfe" d="M 67.5,-0.5 C 81.5,-0.5 95.5,-0.5 109.5,-0.5C 109.5,36.1667 109.5,72.8333 109.5,109.5C 95.5,109.5 81.5,109.5 67.5,109.5C 67.5,109.167 67.5,108.833 67.5,108.5C 69.4147,108.784 71.0813,108.451 72.5,107.5C 78.271,106.117 83.271,103.45 87.5,99.5C 90.1667,97.5 92.5,95.1667 94.5,92.5C 98.8299,86.1862 101.163,79.1862 101.5,71.5C 102.65,56.0983 96.9829,43.9316 84.5,35C 83.8333,34.3333 83.1667,34.3333 82.5,35C 85.6812,40.0433 87.3478,45.5433 87.5,51.5C 87.6407,57.6311 86.8074,63.6311 85,69.5C 83.9741,72.2387 82.4741,74.572 80.5,76.5C 74.7151,78.7794 68.7151,80.1128 62.5,80.5C 59.8333,80.5 57.1667,80.5 54.5,80.5C 48.5055,79.6698 43.5055,77.0031 39.5,72.5C 36.094,64.1772 34.7607,55.5106 35.5,46.5C 36.9739,42.9738 38.3072,39.3071 39.5,35.5C 42.2502,31.6892 45.2502,28.0225 48.5,24.5C 53.0026,20.7454 58.0026,17.7454 63.5,15.5C 66.4552,14.8413 69.4552,14.5079 72.5,14.5C 75.8499,14.335 79.1832,14.5017 82.5,15C 87.3989,15.9719 92.0656,17.3052 96.5,19C 89.3271,8.63898 79.6605,2.13898 67.5,-0.5 Z"/></g>
<g><path style="opacity:1" fill="#18acf7" d="M 54.5,0.5 C 58.1817,0.334703 61.8484,0.50137 65.5,1C 69.5,5 73.5,9 77.5,13C 75.6183,13.1981 73.9516,13.6981 72.5,14.5C 69.4552,14.5079 66.4552,14.8413 63.5,15.5C 59.1667,10.8333 54.8333,6.16667 50.5,1.5C 51.5676,0.565525 52.901,0.232191 54.5,0.5 Z"/></g>
<g><path style="opacity:1" fill="#32c1fc" d="M 54.5,0.5 C 54.5,0.166667 54.5,-0.166667 54.5,-0.5C 58.8333,-0.5 63.1667,-0.5 67.5,-0.5C 79.6605,2.13898 89.3271,8.63898 96.5,19C 92.0656,17.3052 87.3989,15.9719 82.5,15C 79.1832,14.5017 75.8499,14.335 72.5,14.5C 73.9516,13.6981 75.6183,13.1981 77.5,13C 73.5,9 69.5,5 65.5,1C 61.8484,0.50137 58.1817,0.334703 54.5,0.5 Z"/></g>
<g><path style="opacity:1" fill="#1b93f0" d="M 50.5,1.5 C 54.8333,6.16667 59.1667,10.8333 63.5,15.5C 58.0026,17.7454 53.0026,20.7454 48.5,24.5C 47.3157,23.3121 47.3157,22.1455 48.5,21C 44.6667,17.1667 40.8333,13.3333 37,9.5C 36.3292,10.2524 35.4959,10.5858 34.5,10.5C 38.8847,5.97022 44.2181,2.97022 50.5,1.5 Z"/></g>
<g><path style="opacity:1" fill="#197be8" d="M 48.5,24.5 C 45.2502,28.0225 42.2502,31.6892 39.5,35.5C 35.8953,30.226 31.562,25.5593 26.5,21.5C 26.5,21.1667 26.5,20.8333 26.5,20.5C 28.2164,16.3972 30.8831,13.0639 34.5,10.5C 35.4959,10.5858 36.3292,10.2524 37,9.5C 40.8333,13.3333 44.6667,17.1667 48.5,21C 47.3157,22.1455 47.3157,23.3121 48.5,24.5 Z"/></g>
<g><path style="opacity:1" fill="#1867dd" d="M 26.5,21.5 C 31.562,25.5593 35.8953,30.226 39.5,35.5C 38.3072,39.3071 36.9739,42.9738 35.5,46.5C 31.1082,42.1028 26.4416,38.1028 21.5,34.5C 22.198,29.7308 23.8647,25.3974 26.5,21.5 Z"/></g>
<g><path style="opacity:1" fill="#222dbf" d="M 101.5,71.5 C 97.2022,67.7036 93.0356,63.7036 89,59.5C 88.8171,56.6353 88.3171,53.9686 87.5,51.5C 87.3478,45.5433 85.6812,40.0433 82.5,35C 83.1667,34.3333 83.8333,34.3333 84.5,35C 96.9829,43.9316 102.65,56.0983 101.5,71.5 Z"/></g>
<g><path style="opacity:1" fill="#1fb7fa" d="M 26.5,20.5 C 26.5,20.8333 26.5,21.1667 26.5,21.5C 23.8647,25.3974 22.198,29.7308 21.5,34.5C 21.5,35.1667 21.5,35.8333 21.5,36.5C 20.6805,39.3054 20.1805,42.3054 20,45.5C 15.9644,49.7036 11.7978,53.7036 7.5,57.5C 7.33418,52.8215 7.50085,48.1548 8,43.5C 10.8699,33.0484 17.0366,25.3818 26.5,20.5 Z"/></g>
<g><path style="opacity:1" fill="#1c95f5" d="M 60.5,45.5 C 60.5,53.5 60.5,61.5 60.5,69.5C 52.5219,65.3425 50.3553,59.0092 54,50.5C 55.7772,48.2101 57.9438,46.5434 60.5,45.5 Z"/></g>
<g><path style="opacity:1" fill="#1881eb" d="M 66.5,44.5 C 66.5,53.1667 66.5,61.8333 66.5,70.5C 64.2646,70.7947 62.2646,70.4614 60.5,69.5C 60.5,61.5 60.5,53.5 60.5,45.5C 62.2646,44.5386 64.2646,44.2053 66.5,44.5 Z"/></g>
<g><path style="opacity:1" fill="#165ed9" d="M 66.5,44.5 C 67.9587,44.4326 69.2921,44.7659 70.5,45.5C 70.5,53.5 70.5,61.5 70.5,69.5C 69.2921,70.2341 67.9587,70.5674 66.5,70.5C 66.5,61.8333 66.5,53.1667 66.5,44.5 Z"/></g>
<g><path style="opacity:1" fill="#1c33c3" d="M 21.5,34.5 C 26.4416,38.1028 31.1082,42.1028 35.5,46.5C 34.7607,55.5106 36.094,64.1772 39.5,72.5C 39.5654,72.9382 39.3988,73.2716 39,73.5C 37.3853,72.6138 35.8853,71.6138 34.5,70.5C 31.2502,66.9775 28.2502,63.3108 25.5,59.5C 22.6266,52.1295 21.2933,44.4628 21.5,36.5C 21.5,35.8333 21.5,35.1667 21.5,34.5 Z"/></g>
<g><path style="opacity:1" fill="#2245cc" d="M 70.5,45.5 C 75.8912,47.5817 78.8912,51.5817 79.5,57.5C 78.879,63.4557 75.879,67.4557 70.5,69.5C 70.5,61.5 70.5,53.5 70.5,45.5 Z"/></g>
<g><path style="opacity:1" fill="#1d9ef3" d="M 21.5,36.5 C 21.2933,44.4628 22.6266,52.1295 25.5,59.5C 20.7706,64.2243 16.4373,69.2243 12.5,74.5C 10.4079,71.5266 8.90794,68.1932 8,64.5C 7.50335,62.1902 7.33669,59.8568 7.5,57.5C 11.7978,53.7036 15.9644,49.7036 20,45.5C 20.1805,42.3054 20.6805,39.3054 21.5,36.5 Z"/></g>
<g><path style="opacity:1" fill="#1a87ed" d="M 25.5,59.5 C 28.2502,63.3108 31.2502,66.9775 34.5,70.5C 31.6477,75.3662 27.9811,79.6995 23.5,83.5C 22.6143,84.325 22.281,85.325 22.5,86.5C 18.0427,83.3813 14.7094,79.3813 12.5,74.5C 16.4373,69.2243 20.7706,64.2243 25.5,59.5 Z"/></g>
<g><path style="opacity:1" fill="#1e6de0" d="M 87.5,51.5 C 88.3171,53.9686 88.8171,56.6353 89,59.5C 93.0356,63.7036 97.2022,67.7036 101.5,71.5C 101.163,79.1862 98.8299,86.1862 94.5,92.5C 89.5,88.1667 84.8333,83.5 80.5,78.5C 80.5,77.8333 80.5,77.1667 80.5,76.5C 82.4741,74.572 83.9741,72.2387 85,69.5C 86.8074,63.6311 87.6407,57.6311 87.5,51.5 Z"/></g>
<g><path style="opacity:1" fill="#196adf" d="M 34.5,70.5 C 35.8853,71.6138 37.3853,72.6138 39,73.5C 39.3988,73.2716 39.5654,72.9382 39.5,72.5C 43.5055,77.0031 48.5055,79.6698 54.5,80.5C 49.4266,84.0656 44.7599,88.2323 40.5,93C 41.056,93.3826 41.3893,93.8826 41.5,94.5C 36.5356,93.6233 31.869,91.9567 27.5,89.5C 25.6675,88.7515 24.0009,87.7515 22.5,86.5C 22.281,85.325 22.6143,84.325 23.5,83.5C 27.9811,79.6995 31.6477,75.3662 34.5,70.5 Z"/></g>
<g><path style="opacity:1" fill="#174cd0" d="M 54.5,80.5 C 57.1667,80.5 59.8333,80.5 62.5,80.5C 57.4663,84.5331 53.1329,89.1997 49.5,94.5C 48.1667,94.5 46.8333,94.5 45.5,94.5C 44.1667,94.5 42.8333,94.5 41.5,94.5C 41.3893,93.8826 41.056,93.3826 40.5,93C 44.7599,88.2323 49.4266,84.0656 54.5,80.5 Z"/></g>
<g><path style="opacity:1" fill="#1c2dbf" d="M 80.5,76.5 C 80.5,77.1667 80.5,77.8333 80.5,78.5C 77.5,80.8333 74.8333,83.5 72.5,86.5C 68.2595,89.1184 63.9262,91.4518 59.5,93.5C 56.1667,93.8333 52.8333,94.1667 49.5,94.5C 53.1329,89.1997 57.4663,84.5331 62.5,80.5C 68.7151,80.1128 74.7151,78.7794 80.5,76.5 Z"/></g>
<g><path style="opacity:1" fill="#1b80ea" d="M 80.5,78.5 C 84.8333,83.5 89.5,88.1667 94.5,92.5C 92.5,95.1667 90.1667,97.5 87.5,99.5C 82.2243,95.5627 77.2243,91.2294 72.5,86.5C 74.8333,83.5 77.5,80.8333 80.5,78.5 Z"/></g>
<g><path style="opacity:1" fill="#1999f2" d="M 72.5,86.5 C 77.2243,91.2294 82.2243,95.5627 87.5,99.5C 83.271,103.45 78.271,106.117 72.5,107.5C 68.1667,102.833 63.8333,98.1667 59.5,93.5C 63.9262,91.4518 68.2595,89.1184 72.5,86.5 Z"/></g>
<g><path style="opacity:1" fill="#2cbffc" d="M 27.5,89.5 C 31.869,91.9567 36.5356,93.6233 41.5,94.5C 42.8333,94.5 44.1667,94.5 45.5,94.5C 48.8983,99.4063 52.8983,103.906 57.5,108C 60.8168,108.498 64.1501,108.665 67.5,108.5C 67.5,108.833 67.5,109.167 67.5,109.5C 63.1667,109.5 58.8333,109.5 54.5,109.5C 48.2079,107.523 42.2079,104.69 36.5,101C 32.4975,97.8449 29.4975,94.0115 27.5,89.5 Z"/></g>
<g><path style="opacity:1" fill="#1daaf6" d="M 59.5,93.5 C 63.8333,98.1667 68.1667,102.833 72.5,107.5C 71.0813,108.451 69.4147,108.784 67.5,108.5C 64.1501,108.665 60.8168,108.498 57.5,108C 52.8983,103.906 48.8983,99.4063 45.5,94.5C 46.8333,94.5 48.1667,94.5 49.5,94.5C 52.8333,94.1667 56.1667,93.8333 59.5,93.5 Z"/></g>
</svg>
